<svg id="Layer_1" xmlns="http://www.w3.org/2000/svg" viewBox="0 0 529.7 259.1"><style>.st0{fill:url(#SVGID_1_)}.st1{fill:url(#SVGID_2_)}.st2{fill:url(#SVGID_3_)}.st3{fill:url(#SVGID_4_)}.st4{fill:url(#SVGID_5_)}.st5{display:none}.st6{fill:url(#SVGID_6_)}.st6,.st7,.st8{display:inline}.st7{fill:url(#SVGID_7_)}.st8{fill:url(#SVGID_8_)}</style><linearGradient id="SVGID_1_" gradientUnits="userSpaceOnUse" x1="52.822" y1="259.1" x2="52.822" y2="172.8"><stop offset="0" stop-color="#233237"/><stop offset=".058" stop-color="#303439"/><stop offset=".25" stop-color="#553940"/><stop offset=".442" stop-color="#723e45"/><stop offset=".632" stop-color="#864148"/><stop offset=".819" stop-color="#93424a"/><stop offset="1" stop-color="#97434b"/></linearGradient><path class="st0" d="M77.5 259.1H23.6c-16 0-27.3-15.6-22.4-30.8l18-55.5h86.4l-28.1 86.3z"/><linearGradient id="SVGID_2_" gradientUnits="userSpaceOnUse" x1="170.65" y1="259.1" x2="170.65"><stop offset="0" stop-color="#233237"/><stop offset=".058" stop-color="#303439"/><stop offset=".25" stop-color="#553940"/><stop offset=".442" stop-color="#723e45"/><stop offset=".632" stop-color="#864148"/><stop offset=".819" stop-color="#93424a"/><stop offset="1" stop-color="#97434b"/></linearGradient><path class="st1" d="M154.6 259.1H85.4l78.9-242.8C167.4 6.6 176.5 0 186.7 0h69.2L177 242.8c-3.1 9.7-12.2 16.3-22.4 16.3z"/><linearGradient id="SVGID_3_" gradientUnits="userSpaceOnUse" x1="264.85" y1="259.1" x2="264.85"><stop offset="0" stop-color="#97434b"/><stop offset=".058" stop-color="#8a4149"/><stop offset=".25" stop-color="#653c42"/><stop offset=".442" stop-color="#48373d"/><stop offset=".632" stop-color="#34343a"/><stop offset=".819" stop-color="#273338"/><stop offset="1" stop-color="#233237"/></linearGradient><path class="st2" d="M248.8 259.1h-69.2l78.9-242.8C261.6 6.6 270.7 0 280.9 0h69.2l-78.9 242.8c-3.1 9.7-12.2 16.3-22.4 16.3z"/><linearGradient id="SVGID_4_" gradientUnits="userSpaceOnUse" x1="448.827" y1="259.1" x2="448.827"><stop offset="0" stop-color="#97434b"/><stop offset=".058" stop-color="#8a4149"/><stop offset=".25" stop-color="#653c42"/><stop offset=".442" stop-color="#48373d"/><stop offset=".632" stop-color="#34343a"/><stop offset=".819" stop-color="#273338"/><stop offset="1" stop-color="#233237"/></linearGradient><path class="st3" d="M454.4 259.1H368L452.2 0h53.9c16 0 27.3 15.6 22.4 30.8l-74.1 228.3z"/><linearGradient id="SVGID_5_" gradientUnits="userSpaceOnUse" x1="363.827" y1="259.1" x2="363.827"><stop offset="0" stop-color="#97434b"/><stop offset=".058" stop-color="#8a4149"/><stop offset=".25" stop-color="#653c42"/><stop offset=".442" stop-color="#48373d"/><stop offset=".632" stop-color="#34343a"/><stop offset=".819" stop-color="#273338"/><stop offset="1" stop-color="#233237"/></linearGradient><path class="st4" d="M358.3 0h86.4l-84.2 259.1h-53.9c-16 0-27.3-15.6-22.4-30.8L358.3 0z"/><g class="st5"><linearGradient id="SVGID_6_" gradientUnits="userSpaceOnUse" x1="826.502" y1="16.505" x2="826.502" y2="189.205"><stop offset="0" stop-color="#233237"/><stop offset=".161" stop-color="#283338"/><stop offset=".357" stop-color="#37353a"/><stop offset=".572" stop-color="#50393f"/><stop offset=".797" stop-color="#723e45"/><stop offset="1" stop-color="#97434b"/></linearGradient><path class="st6" d="M837.1 189.2h-53.9c-16 0-27.3-15.6-22.4-30.8l46.1-141.9h86.4l-56.2 172.7z"/><linearGradient id="SVGID_7_" gradientUnits="userSpaceOnUse" x1="713.779" y1="16.505" x2="713.779" y2="275.605"><stop offset="0" stop-color="#233237"/><stop offset=".161" stop-color="#283338"/><stop offset=".357" stop-color="#37353a"/><stop offset=".572" stop-color="#50393f"/><stop offset=".797" stop-color="#723e45"/><stop offset="1" stop-color="#97434b"/></linearGradient><path class="st7" d="M697.7 275.6h-69.2l78.9-242.8c3.1-9.7 12.2-16.3 22.4-16.3H799l-78.9 242.8c-3.1 9.7-12.2 16.3-22.4 16.3z"/><linearGradient id="SVGID_8_" gradientUnits="userSpaceOnUse" x1="897.756" y1="16.505" x2="897.756" y2="275.605"><stop offset="0" stop-color="#233237"/><stop offset=".161" stop-color="#283338"/><stop offset=".357" stop-color="#37353a"/><stop offset=".572" stop-color="#50393f"/><stop offset=".797" stop-color="#723e45"/><stop offset="1" stop-color="#97434b"/></linearGradient><path class="st8" d="M903.3 275.6h-86.4l84.2-259.1H955c16 0 27.3 15.6 22.4 30.8l-74.1 228.3z"/></g></svg>